<svg xmlns="http://www.w3.org/2000/svg" xmlns:xlink="http://www.w3.org/1999/xlink" width="1080" zoomAndPan="magnify" viewBox="0 0 810 809.999993" height="1080" preserveAspectRatio="xMidYMid meet" version="1.0"><rect x="-81" width="972" fill="#ffffff" y="-80.999999" height="971.999992" fill-opacity="1"/><rect x="-81" width="972" fill="#ffffff" y="-80.999999" height="971.999992" fill-opacity="1"/><path fill="#1185fe" d="M 201.808594 128.070312 C 284.015625 189.8125 372.4375 315 404.902344 382.179688 C 437.367188 315.003906 525.785156 189.8125 607.992188 128.070312 C 667.308594 83.519531 763.414062 49.050781 763.414062 158.738281 C 763.414062 180.644531 750.859375 342.757812 743.496094 369.078125 C 717.902344 460.578125 624.636719 483.917969 541.679688 469.792969 C 686.691406 494.484375 723.582031 576.269531 643.914062 658.054688 C 492.609375 813.382812 426.445312 619.082031 409.484375 569.296875 C 406.375 560.167969 404.921875 555.898438 404.898438 559.53125 C 404.878906 555.898438 403.421875 560.167969 400.316406 569.296875 C 383.363281 619.082031 317.199219 813.386719 165.886719 658.054688 C 86.214844 576.269531 123.105469 494.476562 268.121094 469.792969 C 185.15625 483.917969 91.890625 460.578125 66.300781 369.078125 C 58.9375 342.753906 46.382812 180.640625 46.382812 158.738281 C 46.382812 49.050781 142.492188 83.519531 201.804688 128.070312 Z M 201.808594 128.070312 " fill-opacity="1" fill-rule="nonzero"/></svg>